<?xml version="1.0" encoding="iso-8859-1"?>
<svg height="800px" width="800px" version="1.1" id="Layer_1"
  xmlns="http://www.w3.org/2000/svg"
  xmlns:xlink="http://www.w3.org/1999/xlink" viewBox="0 0 512 512" xml:space="preserve">
  <path style="fill:#6FB0B6;" d="M126.592,370.236C61.713,363.059,12.8,308.446,12.8,243.2c0-67.311,52.224-122.65,118.281-127.633
	C142.925,56.252,194.782,12.8,256,12.8s113.075,43.452,124.919,102.767C446.976,120.55,499.2,175.889,499.2,243.2
	c0,65.323-48.913,119.996-113.792,127.172L126.592,370.236z"/>
  <path style="fill:#919CB0;" d="M140.8,499.2V396.8h230.4v102.4H140.8z"/>
  <path style="fill:#A7B0C0;" d="M140.8,396.8V294.4h230.4v102.4H140.8z"/>
  <path style="fill:#BDC4D0;" d="M140.8,294.4V192h230.4v102.4H140.8z"/>
  <g>
    <circle style="fill:#573A32;" cx="192" cy="243.2" r="12.8"/>
    <circle style="fill:#573A32;" cx="192" cy="345.6" r="12.8"/>
    <circle style="fill:#573A32;" cx="192" cy="448" r="12.8"/>
    <path style="fill:#573A32;" d="M243.2,256H320c7.074,0,12.8-5.726,12.8-12.8s-5.726-12.8-12.8-12.8h-76.8
		c-7.074,0-12.8,5.726-12.8,12.8S236.126,256,243.2,256z"/>
    <path style="fill:#573A32;" d="M243.2,358.4H320c7.074,0,12.8-5.726,12.8-12.8c0-7.074-5.726-12.8-12.8-12.8h-76.8
		c-7.074,0-12.8,5.726-12.8,12.8C230.4,352.674,236.126,358.4,243.2,358.4z"/>
    <path style="fill:#573A32;" d="M243.2,460.8H320c7.074,0,12.8-5.726,12.8-12.8s-5.726-12.8-12.8-12.8h-76.8
		c-7.074,0-12.8,5.726-12.8,12.8S236.126,460.8,243.2,460.8z"/>
    <path style="fill:#573A32;" d="M391.305,103.834C374.98,43.349,320.162,0,256,0S137.028,43.349,120.695,103.834
		C52.54,113.613,0,172.382,0,243.2c0,73.301,56.371,133.444,128,139.955V486.4c0,14.14,11.46,25.6,25.6,25.6h204.8
		c14.14,0,25.6-11.46,25.6-25.6V383.351c71.654-6.494,128-66.833,128-140.151C512,172.382,459.46,113.613,391.305,103.834z
		 M358.4,486.4H153.6v-76.8h204.8V486.4z M358.4,384H153.6v-76.8h204.8V384z M358.4,281.6H153.6v-76.8h204.8V281.6z M384,357.649
		V204.8c0-14.14-11.46-25.6-25.6-25.6H153.6c-14.14,0-25.6,11.46-25.6,25.6v152.721C70.417,351.138,25.6,302.481,25.6,243.2
		c0-63.625,51.575-115.2,115.2-115.2c0.435,0,0.845,0.119,1.28,0.128C148.463,70.545,196.719,25.6,256,25.6
		s107.537,44.945,113.92,102.528c0.435-0.009,0.845-0.128,1.28-0.128c63.625,0,115.2,51.575,115.2,115.2
		C486.4,302.49,441.591,351.275,384,357.649z"/>
  </g>
</svg>